<?xml version="1.0" encoding="UTF-8"?>
<!DOCTYPE svg PUBLIC "-//W3C//DTD SVG 1.1//EN" "https://www.w3.org/Graphics/SVG/1.1/DTD/svg11.dtd">
<!-- Creator: CorelDRAW -->
<svg xmlns="https://www.w3.org/2000/svg" xml:space="preserve" width="0.758984in" height="0.387567in" version="1.1" style="shape-rendering:geometricPrecision; text-rendering:geometricPrecision; image-rendering:optimizeQuality; fill-rule:evenodd; clip-rule:evenodd"
viewBox="0 0 164.5 84"
 xmlns:xlink="https://www.w3.org/1999/xlink"
 xmlns:xodm="https://www.corel.com/coreldraw/odm/2003">
 <defs>
  <style type="text/css">
   <![CDATA[
    .fil0 {fill:#332D5F}
    .fil2 {fill:#3B3663}
    .fil1 {fill:#FF9D00;fill-rule:nonzero}
   ]]>
  </style>
 </defs>
 <g id="Layer_x0020_1">
  <metadata id="CorelCorpID_0Corel-Layer"/>
  <path class="fil0" d="M27.87 18.98c3.91,0 7.36,0.95 10.36,2.84 2.99,1.9 5.33,4.6 7.01,8.11 1.68,3.51 2.52,7.59 2.52,12.24 0,4.64 -0.84,8.76 -2.52,12.33 -1.68,3.58 -4.03,6.36 -7.06,8.34 -3.03,1.99 -6.46,2.98 -10.31,2.98 -3.12,0 -5.93,-0.66 -8.44,-1.97 -2.51,-1.31 -4.43,-3.13 -5.78,-5.46l0 0.73c0,1.96 -0.61,3.53 -1.83,4.72 -1.22,1.19 -2.87,1.79 -4.95,1.79 -2.08,0 -3.75,-0.6 -5,-1.79 -1.25,-1.19 -1.88,-2.77 -1.88,-4.72l0 -52.81c0,-1.9 0.66,-3.42 1.97,-4.58 1.31,-1.16 3.04,-1.74 5.18,-1.74 2.02,0 3.64,0.55 4.86,1.65 1.22,1.1 1.83,2.57 1.83,4.4l0 20.08c1.34,-2.26 3.26,-4.02 5.73,-5.27 2.48,-1.25 5.24,-1.88 8.3,-1.88zm43.43 47.91l7.6 -3.68 -0.52 -0.27c-3.61,-1.92 -6.39,-4.65 -8.34,-8.16 -1.96,-3.51 -2.93,-7.66 -2.93,-12.42 0,-4.77 0.98,-8.91 2.93,-12.42 1.96,-3.51 4.74,-6.22 8.34,-8.11 3.61,-1.9 7.79,-2.84 12.56,-2.84 4.77,0 8.95,0.95 12.56,2.84 3.61,1.9 6.39,4.6 8.34,8.11 1.96,3.51 2.93,7.65 2.93,12.42 0,4.77 -0.98,8.91 -2.93,12.42 -1.96,3.51 -4.74,6.24 -8.34,8.16 -7.66,4.09 -23.46,4.2 -32.2,3.95zm-47.47 -11.61c3.24,0 5.75,-1.15 7.52,-3.44 1.77,-2.29 2.66,-5.52 2.66,-9.67 0,-4.09 -0.89,-7.23 -2.66,-9.4 -1.77,-2.17 -4.28,-3.25 -7.52,-3.25 -3.24,0 -5.75,1.11 -7.52,3.35 -1.77,2.23 -2.66,5.39 -2.66,9.49 0,4.16 0.89,7.35 2.66,9.58 1.77,2.23 4.28,3.35 7.52,3.35zm33.65 10.36c-2.02,0 -3.68,-0.55 -5,-1.65 -1.31,-1.1 -1.97,-2.72 -1.97,-4.86l0 -52.62c0,-2.14 0.66,-3.76 1.97,-4.86 1.31,-1.1 2.98,-1.65 5,-1.65 1.95,0 3.59,0.55 4.9,1.65 1.31,1.1 1.97,2.72 1.97,4.86l0 52.62c0,2.14 -0.66,3.76 -1.97,4.86 -1.31,1.1 -2.95,1.65 -4.9,1.65zm99.1 -46.48c2.08,0 3.74,0.59 5,1.79 1.25,1.19 1.88,2.77 1.88,4.72l0 34.56c0,4.02 -0.64,7.49 -1.93,10.42l-16.54 0c0.74,-0.37 1.4,-0.82 1.96,-1.35 1.89,-1.77 2.84,-4.46 2.84,-8.07l0 -4.95c-1.28,2.32 -3.21,4.16 -5.78,5.5 -2.57,1.34 -5.44,2.02 -8.62,2.02 -3.91,0 -7.38,-0.92 -10.41,-2.75 -3.03,-1.83 -5.39,-4.45 -7.11,-7.84 -1.71,-3.39 -2.57,-7.32 -2.57,-11.78 0,-4.46 0.86,-8.39 2.57,-11.78 1.71,-3.39 4.08,-6.02 7.11,-7.89 3.02,-1.86 6.49,-2.8 10.41,-2.8 3.12,0 5.94,0.66 8.48,1.97 2.54,1.31 4.48,3.13 5.82,5.46l0 -0.92c0,-1.95 0.63,-3.5 1.88,-4.63 1.25,-1.13 2.92,-1.69 5,-1.69zm-37.79 51.5c0.16,-0.35 0.35,-0.68 0.57,-0.98 0.73,-0.98 1.71,-1.47 2.93,-1.47 0.67,0 1.47,0.14 2.38,0.41 0.92,0.28 1.86,0.6 2.84,0.96 1.08,0.4 2.11,0.76 3.09,1.07l-11.82 0zm20.65 -17.39c3.24,0 5.76,-1.04 7.56,-3.12 1.8,-2.08 2.7,-4.98 2.7,-8.71 0,-3.73 -0.9,-6.65 -2.7,-8.75 -1.8,-2.11 -4.33,-3.16 -7.56,-3.16 -3.24,0 -5.78,1.05 -7.61,3.16 -1.83,2.11 -2.75,5.03 -2.75,8.75 0,3.73 0.92,6.63 2.75,8.71 1.83,2.08 4.37,3.12 7.61,3.12z"/>
  <path class="fil1" d="M1.4 83.84c-0.11,0 -0.19,-0.03 -0.26,-0.11 -0.06,-0.06 -0.1,-0.15 -0.1,-0.26l0 -10.57c0,-0.11 0.03,-0.21 0.1,-0.29 0.06,-0.06 0.15,-0.1 0.26,-0.1l4.42 0c1.15,0 2.01,0.28 2.59,0.83 0.58,0.55 0.87,1.26 0.87,2.15 0,0.6 -0.15,1.1 -0.42,1.51 -0.27,0.4 -0.62,0.71 -0.99,0.89 0.47,0.23 0.86,0.58 1.17,1.05 0.31,0.47 0.47,1.02 0.47,1.63 0,0.6 -0.13,1.15 -0.4,1.65 -0.28,0.5 -0.7,0.89 -1.23,1.18 -0.53,0.29 -1.18,0.44 -1.93,0.44l-4.55 0zm4.18 -6.53c0.7,0 1.23,-0.16 1.6,-0.49 0.37,-0.31 0.55,-0.76 0.55,-1.33 0,-0.57 -0.18,-0.99 -0.53,-1.28 -0.37,-0.29 -0.91,-0.44 -1.62,-0.44l-3.01 0 0 3.53 3.01 0zm0.16 5.25c0.7,0 1.23,-0.19 1.64,-0.57 0.39,-0.37 0.58,-0.84 0.58,-1.42 0,-0.6 -0.19,-1.07 -0.58,-1.44 -0.41,-0.37 -0.94,-0.55 -1.64,-0.55l-3.17 0 0 3.98 3.17 0z"/>
  <path id="_1" class="fil1" d="M14.9 83.84c-0.11,0 -0.19,-0.03 -0.26,-0.11 -0.08,-0.06 -0.11,-0.15 -0.11,-0.26l0 -3.84 -3.9 -6.59c-0.03,-0.06 -0.05,-0.13 -0.05,-0.21 0,-0.08 0.03,-0.16 0.1,-0.23 0.06,-0.06 0.15,-0.1 0.23,-0.1l0.78 0c0.19,0 0.34,0.1 0.42,0.28l3.21 5.29 3.19 -5.29c0.11,-0.18 0.24,-0.28 0.42,-0.28l0.78 0c0.08,0 0.16,0.03 0.24,0.1 0.06,0.06 0.1,0.15 0.1,0.23 0,0.05 -0.02,0.13 -0.06,0.21l-3.9 6.59 0 3.84c0,0.11 -0.03,0.19 -0.1,0.26 -0.08,0.08 -0.18,0.11 -0.29,0.11l-0.78 0z"/>
  <path id="_2" class="fil1" d="M25.8 83.84c-0.11,0 -0.19,-0.03 -0.26,-0.11 -0.06,-0.06 -0.1,-0.15 -0.1,-0.26l0 -10.57c0,-0.11 0.03,-0.21 0.1,-0.29 0.06,-0.06 0.15,-0.1 0.26,-0.1l4.42 0c1.15,0 2.01,0.28 2.59,0.83 0.58,0.55 0.87,1.26 0.87,2.15 0,0.6 -0.15,1.1 -0.42,1.51 -0.27,0.4 -0.62,0.71 -0.99,0.89 0.47,0.23 0.86,0.58 1.17,1.05 0.31,0.47 0.47,1.02 0.47,1.63 0,0.6 -0.13,1.15 -0.4,1.65 -0.28,0.5 -0.7,0.89 -1.23,1.18 -0.53,0.29 -1.18,0.44 -1.93,0.44l-4.55 0zm4.18 -6.53c0.7,0 1.23,-0.16 1.6,-0.49 0.37,-0.31 0.55,-0.76 0.55,-1.33 0,-0.57 -0.18,-0.99 -0.53,-1.28 -0.37,-0.29 -0.91,-0.44 -1.62,-0.44l-3.01 0 0 3.53 3.01 0zm0.16 5.25c0.7,0 1.23,-0.19 1.64,-0.57 0.39,-0.37 0.58,-0.84 0.58,-1.42 0,-0.6 -0.19,-1.07 -0.58,-1.44 -0.41,-0.37 -0.94,-0.55 -1.64,-0.55l-3.17 0 0 3.98 3.17 0z"/>
  <path id="_3" class="fil1" d="M36.6 83.84c-0.11,0 -0.19,-0.03 -0.26,-0.11 -0.06,-0.06 -0.1,-0.15 -0.1,-0.26l0 -10.57c0,-0.11 0.03,-0.21 0.1,-0.29 0.06,-0.06 0.15,-0.1 0.26,-0.1l3.95 0c1.23,0 2.2,0.29 2.9,0.86 0.7,0.58 1.04,1.42 1.04,2.53 0,0.83 -0.21,1.49 -0.62,2.02 -0.4,0.53 -0.99,0.89 -1.72,1.1l2.49 4.32c0.03,0.06 0.05,0.13 0.05,0.18 0,0.08 -0.03,0.16 -0.1,0.23 -0.06,0.06 -0.15,0.1 -0.23,0.1l-0.71 0c-0.16,0 -0.29,-0.03 -0.37,-0.11 -0.1,-0.08 -0.18,-0.18 -0.26,-0.32l-2.38 -4.15 -2.88 0 0 4.21c0,0.11 -0.03,0.19 -0.11,0.26 -0.08,0.08 -0.16,0.11 -0.27,0.11l-0.78 0zm3.89 -5.91c1.63,0 2.44,-0.68 2.44,-2.06 0,-1.38 -0.81,-2.06 -2.44,-2.06l-2.72 0 0 4.11 2.72 0z"/>
  <path id="_4" class="fil1" d="M46.05 83.84c-0.08,0 -0.16,-0.03 -0.23,-0.1 -0.06,-0.06 -0.1,-0.15 -0.1,-0.23l0.03 -0.18 4.02 -10.48c0.08,-0.24 0.26,-0.36 0.52,-0.36l1.04 0c0.26,0 0.44,0.11 0.52,0.36l4.01 10.48 0.03 0.18c0,0.08 -0.03,0.16 -0.1,0.23 -0.08,0.06 -0.16,0.1 -0.24,0.1l-0.76 0c-0.11,0 -0.19,-0.03 -0.26,-0.1 -0.08,-0.05 -0.13,-0.11 -0.15,-0.18l-0.91 -2.33 -5.36 0 -0.89 2.33c-0.08,0.18 -0.23,0.28 -0.4,0.28l-0.78 0zm2.54 -3.95l4.44 0 -2.22 -5.81 -2.22 5.81z"/>
  <path id="_5" class="fil1" d="M58 83.84c-0.11,0 -0.19,-0.03 -0.26,-0.11 -0.06,-0.06 -0.1,-0.15 -0.1,-0.26l0 -10.57c0,-0.11 0.03,-0.21 0.1,-0.29 0.06,-0.06 0.15,-0.1 0.26,-0.1l0.71 0c0.11,0 0.19,0.02 0.24,0.06 0.05,0.05 0.11,0.1 0.16,0.16l5.42 8.35 0 -8.19c0,-0.11 0.03,-0.21 0.11,-0.29 0.06,-0.06 0.15,-0.1 0.26,-0.1l0.73 0c0.11,0 0.21,0.03 0.29,0.1 0.06,0.08 0.1,0.18 0.1,0.29l0 10.56c0,0.11 -0.03,0.19 -0.1,0.27 -0.08,0.08 -0.16,0.11 -0.27,0.11l-0.73 0c-0.18,0 -0.31,-0.08 -0.39,-0.23l-5.42 -8.27 0 8.13c0,0.11 -0.03,0.19 -0.1,0.26 -0.08,0.08 -0.16,0.11 -0.28,0.11l-0.74 0z"/>
  <path id="_6" class="fil1" d="M69.22 83.84c-0.11,0 -0.19,-0.03 -0.26,-0.11 -0.06,-0.06 -0.1,-0.15 -0.1,-0.26l0 -10.57c0,-0.11 0.03,-0.21 0.1,-0.29 0.06,-0.06 0.15,-0.1 0.26,-0.1l3.66 0c1.64,0 2.8,0.36 3.53,1.08 0.73,0.73 1.1,1.83 1.12,3.3 0.02,0.31 0.02,0.73 0.02,1.26 0,0.53 0,0.96 -0.02,1.28 -0.02,1.02 -0.18,1.86 -0.49,2.49 -0.31,0.65 -0.79,1.13 -1.46,1.44 -0.66,0.31 -1.54,0.47 -2.62,0.47l-3.74 0zm3.66 -1.34c0.76,0 1.36,-0.11 1.81,-0.32 0.44,-0.21 0.76,-0.53 0.97,-0.99 0.19,-0.44 0.31,-1.05 0.32,-1.81 0.02,-0.65 0.03,-1.05 0.03,-1.21 0,-0.18 -0.02,-0.57 -0.03,-1.2 -0.02,-1.08 -0.27,-1.88 -0.76,-2.38 -0.5,-0.5 -1.31,-0.74 -2.43,-0.74l-2.41 0 0 8.66 2.49 0z"/>
  <path id="_7" class="fil1" d="M80.36 83.84c-0.11,0 -0.19,-0.03 -0.26,-0.11 -0.06,-0.06 -0.1,-0.15 -0.1,-0.26l0 -10.59c0,-0.11 0.03,-0.19 0.1,-0.28 0.06,-0.06 0.15,-0.1 0.26,-0.1l0.81 0c0.11,0 0.21,0.03 0.27,0.1 0.06,0.06 0.1,0.16 0.1,0.28l0 10.59c0,0.11 -0.03,0.19 -0.1,0.26 -0.08,0.08 -0.16,0.11 -0.27,0.11l-0.81 0z"/>
  <path id="_8" class="fil1" d="M87.24 83.84c-0.11,0 -0.19,-0.03 -0.26,-0.11 -0.08,-0.06 -0.11,-0.15 -0.11,-0.26l0 -9.57 -3.12 0c-0.11,0 -0.19,-0.03 -0.26,-0.11 -0.08,-0.06 -0.11,-0.15 -0.11,-0.26l0 -0.63c0,-0.11 0.03,-0.21 0.11,-0.29 0.06,-0.06 0.15,-0.1 0.26,-0.1l7.77 0c0.11,0 0.21,0.03 0.28,0.1 0.06,0.08 0.1,0.18 0.1,0.29l0 0.63c0,0.11 -0.03,0.19 -0.1,0.26 -0.08,0.08 -0.16,0.11 -0.28,0.11l-3.11 0 0 9.57c0,0.11 -0.03,0.19 -0.11,0.26 -0.08,0.08 -0.16,0.11 -0.27,0.11l-0.78 0z"/>
  <path id="_9" class="fil1" d="M94.09 83.84c-0.11,0 -0.19,-0.03 -0.26,-0.11 -0.06,-0.06 -0.1,-0.15 -0.1,-0.26l0 -10.57c0,-0.11 0.03,-0.21 0.1,-0.29 0.06,-0.06 0.15,-0.1 0.26,-0.1l6.65 0c0.11,0 0.21,0.03 0.29,0.1 0.06,0.08 0.1,0.18 0.1,0.29l0 0.58c0,0.11 -0.03,0.19 -0.1,0.26 -0.08,0.06 -0.18,0.1 -0.29,0.1l-5.52 0 0 3.61 5.16 0c0.11,0 0.21,0.03 0.29,0.1 0.06,0.08 0.1,0.18 0.1,0.29l0 0.55c0,0.11 -0.03,0.19 -0.1,0.26 -0.08,0.08 -0.18,0.11 -0.29,0.11l-5.16 0 0 3.74 5.65 0c0.11,0 0.21,0.03 0.29,0.1 0.06,0.08 0.1,0.18 0.1,0.29l0 0.58c0,0.11 -0.03,0.19 -0.11,0.26 -0.08,0.08 -0.16,0.11 -0.28,0.11l-6.78 0z"/>
  <path id="_10" class="fil1" d="M107.46 84c-1.44,0 -2.53,-0.39 -3.27,-1.18 -0.76,-0.78 -1.17,-1.85 -1.21,-3.21 -0.02,-0.29 -0.02,-0.76 -0.02,-1.42 0,-0.66 0,-1.15 0.02,-1.46 0.05,-1.36 0.45,-2.43 1.21,-3.22 0.74,-0.78 1.83,-1.17 3.27,-1.17 0.96,0 1.78,0.16 2.44,0.5 0.66,0.34 1.18,0.79 1.52,1.34 0.34,0.55 0.52,1.13 0.55,1.77 0,0.1 -0.03,0.18 -0.1,0.23 -0.08,0.06 -0.16,0.1 -0.26,0.1l-0.81 0c-0.11,0 -0.19,-0.03 -0.26,-0.08 -0.06,-0.05 -0.11,-0.15 -0.15,-0.27 -0.18,-0.83 -0.52,-1.41 -0.99,-1.75 -0.49,-0.34 -1.13,-0.5 -1.96,-0.5 -1.88,0 -2.85,1.05 -2.93,3.14 -0.02,0.29 -0.02,0.74 -0.02,1.34 0,0.6 0,1.07 0.02,1.38 0.08,2.09 1.05,3.12 2.93,3.12 0.81,0 1.46,-0.16 1.94,-0.5 0.49,-0.34 0.83,-0.91 1,-1.73 0.03,-0.13 0.08,-0.23 0.15,-0.27 0.06,-0.05 0.15,-0.08 0.26,-0.08l0.81 0c0.1,0 0.18,0.03 0.26,0.08 0.06,0.06 0.1,0.15 0.1,0.24 -0.03,0.63 -0.21,1.21 -0.55,1.76 -0.34,0.55 -0.86,0.99 -1.52,1.33 -0.66,0.34 -1.49,0.52 -2.44,0.52z"/>
  <path id="_11" class="fil1" d="M114.54 83.84c-0.11,0 -0.19,-0.03 -0.26,-0.11 -0.06,-0.06 -0.1,-0.15 -0.1,-0.26l0 -10.57c0,-0.11 0.03,-0.21 0.1,-0.29 0.06,-0.06 0.15,-0.1 0.26,-0.1l0.78 0c0.11,0 0.21,0.03 0.29,0.1 0.06,0.08 0.1,0.18 0.1,0.29l0 4.5 5.63 0 0 -4.5c0,-0.11 0.03,-0.21 0.11,-0.29 0.06,-0.06 0.15,-0.1 0.26,-0.1l0.78 0c0.11,0 0.21,0.03 0.29,0.1 0.06,0.08 0.1,0.18 0.1,0.29l0 10.57c0,0.11 -0.03,0.19 -0.11,0.26 -0.08,0.08 -0.16,0.11 -0.28,0.11l-0.78 0c-0.11,0 -0.19,-0.03 -0.26,-0.11 -0.08,-0.06 -0.11,-0.15 -0.11,-0.26l0 -4.66 -5.63 0 0 4.66c0,0.11 -0.03,0.19 -0.11,0.26 -0.08,0.08 -0.16,0.11 -0.27,0.11l-0.78 0z"/>
  <path id="_12" class="fil1" d="M128.56 83.84c-0.11,0 -0.19,-0.03 -0.26,-0.11 -0.08,-0.06 -0.11,-0.15 -0.11,-0.26l0 -9.57 -3.12 0c-0.11,0 -0.19,-0.03 -0.26,-0.11 -0.08,-0.06 -0.11,-0.15 -0.11,-0.26l0 -0.63c0,-0.11 0.03,-0.21 0.11,-0.29 0.06,-0.06 0.15,-0.1 0.26,-0.1l7.77 0c0.11,0 0.21,0.03 0.28,0.1 0.06,0.08 0.1,0.18 0.1,0.29l0 0.63c0,0.11 -0.03,0.19 -0.1,0.26 -0.08,0.08 -0.16,0.11 -0.28,0.11l-3.11 0 0 9.57c0,0.11 -0.03,0.19 -0.11,0.26 -0.08,0.08 -0.16,0.11 -0.27,0.11l-0.78 0z"/>
  <path id="_13" class="fil1" d="M139.31 84c-1.39,0 -2.46,-0.37 -3.22,-1.13 -0.76,-0.74 -1.13,-1.88 -1.13,-3.4l0 -6.57c0,-0.11 0.03,-0.21 0.1,-0.29 0.06,-0.06 0.15,-0.1 0.26,-0.1l0.78 0c0.11,0 0.21,0.03 0.29,0.1 0.06,0.08 0.1,0.18 0.1,0.29l0 6.61c0,1.05 0.24,1.85 0.74,2.36 0.49,0.52 1.18,0.78 2.09,0.78 0.89,0 1.59,-0.26 2.09,-0.79 0.49,-0.52 0.73,-1.3 0.73,-2.35l0 -6.61c0,-0.11 0.03,-0.21 0.1,-0.29 0.06,-0.06 0.16,-0.1 0.28,-0.1l0.78 0c0.11,0 0.19,0.03 0.27,0.1 0.06,0.08 0.1,0.18 0.1,0.29l0 6.57c0,1.52 -0.37,2.66 -1.12,3.4 -0.76,0.76 -1.83,1.13 -3.22,1.13z"/>
  <path id="_14" class="fil1" d="M146.74 83.84c-0.11,0 -0.19,-0.03 -0.26,-0.11 -0.06,-0.06 -0.1,-0.15 -0.1,-0.26l0 -10.57c0,-0.11 0.03,-0.21 0.1,-0.29 0.06,-0.06 0.15,-0.1 0.26,-0.1l3.95 0c1.23,0 2.2,0.29 2.9,0.86 0.7,0.58 1.04,1.42 1.04,2.53 0,0.83 -0.21,1.49 -0.62,2.02 -0.4,0.53 -0.99,0.89 -1.72,1.1l2.49 4.32c0.03,0.06 0.05,0.13 0.05,0.18 0,0.08 -0.03,0.16 -0.1,0.23 -0.06,0.06 -0.15,0.1 -0.23,0.1l-0.71 0c-0.16,0 -0.29,-0.03 -0.37,-0.11 -0.1,-0.08 -0.18,-0.18 -0.26,-0.32l-2.38 -4.15 -2.88 0 0 4.21c0,0.11 -0.03,0.19 -0.11,0.26 -0.08,0.08 -0.16,0.11 -0.27,0.11l-0.78 0zm3.89 -5.91c1.63,0 2.44,-0.68 2.44,-2.06 0,-1.38 -0.81,-2.06 -2.44,-2.06l-2.72 0 0 4.11 2.72 0z"/>
  <path id="_15" class="fil1" d="M157.33 83.84c-0.11,0 -0.19,-0.03 -0.26,-0.11 -0.06,-0.06 -0.1,-0.15 -0.1,-0.26l0 -10.57c0,-0.11 0.03,-0.21 0.1,-0.29 0.06,-0.06 0.15,-0.1 0.26,-0.1l6.65 0c0.11,0 0.21,0.03 0.29,0.1 0.06,0.08 0.1,0.18 0.1,0.29l0 0.58c0,0.11 -0.03,0.19 -0.1,0.26 -0.08,0.06 -0.18,0.1 -0.29,0.1l-5.52 0 0 3.61 5.16 0c0.11,0 0.21,0.03 0.29,0.1 0.06,0.08 0.1,0.18 0.1,0.29l0 0.55c0,0.11 -0.03,0.19 -0.1,0.26 -0.08,0.08 -0.18,0.11 -0.29,0.11l-5.16 0 0 3.74 5.65 0c0.11,0 0.21,0.03 0.29,0.1 0.06,0.08 0.1,0.18 0.1,0.29l0 0.58c0,0.11 -0.03,0.19 -0.11,0.26 -0.08,0.08 -0.16,0.11 -0.28,0.11l-6.78 0z"/>
  <path class="fil2" d="M71.3 66.89l7.6 -3.68 -0.52 -0.27c-3.61,-1.92 -6.39,-4.65 -8.34,-8.16 -1.96,-3.51 -2.93,-7.66 -2.93,-12.42 0,-4.77 0.98,-8.91 2.93,-12.42 1.96,-3.51 4.74,-6.22 8.34,-8.11 3.61,-1.9 7.79,-2.84 12.56,-2.84 4.77,0 8.95,0.95 12.56,2.84 3.61,1.9 6.39,4.6 8.34,8.11 1.96,3.51 2.93,7.65 2.93,12.42 0,4.77 -0.98,8.91 -2.93,12.42 -1.96,3.51 -4.74,6.24 -8.34,8.16 -7.66,4.09 -23.46,4.2 -32.2,3.95z"/>
 </g>
</svg>
