<svg xmlns="http://www.w3.org/2000/svg" xmlns:xlink="http://www.w3.org/1999/xlink" xml:space="preserve" width="7.20126in" height="3.70603in" fill-rule="evenodd" clip-rule="evenodd" viewBox="0 0 7384 3800">
 <g id="Layer_x0020_1">
  <metadata id="CorelCorpID_0Corel-Layer"></metadata>
  <g id="_2391961233488">
   <path fill="#332D5F" d="M3012 1901l15 241c25,118 31,171 88,293 59,125 160,260 297,354l92 59c8,4 28,15 36,17 -15,13 -327,156 -340,168l197 2c32,3 65,1 97,0 30,-2 71,0 102,0l189 -8c33,-3 61,-3 93,-5 32,-3 60,-5 90,-8 244,-20 540,-72 719,-182 35,-22 66,-43 97,-66 37,-29 70,-61 101,-92l54 -63c11,-13 20,-27 30,-41 11,-15 20,-30 30,-45 71,-111 131,-291 141,-414 4,-46 10,-69 10,-119 0,-22 3,-36 3,-59 0,-23 -3,-39 -3,-60 0,-107 -25,-236 -59,-339 -22,-68 -54,-135 -91,-195 -44,-70 -72,-106 -133,-168 -25,-26 -52,-50 -83,-72 -93,-72 -194,-127 -336,-168 -130,-39 -241,-48 -397,-48 -109,0 -199,15 -282,33 -81,18 -171,53 -236,86l-88 49c-33,22 -106,76 -131,102 -50,53 -75,73 -118,136l-47 75c-92,146 -137,379 -137,537z"></path>
   <path fill="#332D5F" d="M1052 1356c120,0 181,14 270,68 26,15 52,40 70,60 40,42 73,103 91,153 11,29 18,57 25,88 36,156 24,339 -26,492 -41,126 -157,293 -410,293 -123,0 -206,-33 -267,-80 -51,-39 -77,-74 -106,-122 -31,-50 -52,-112 -65,-173 -3,-17 -5,-30 -7,-48 -6,-46 -11,-76 -10,-125 0,-13 -3,-17 -3,-27l10 -151c26,-119 35,-187 124,-295l32 -33c48,-40 67,-52 134,-77 31,-11 90,-23 138,-23zm-1052 1330c0,126 80,290 310,290 63,0 118,-14 153,-32 42,-22 64,-40 90,-72 24,-29 40,-59 50,-95 11,-40 11,-75 11,-121 3,2 4,3 6,6 3,4 2,3 5,7 4,8 6,10 10,16 52,75 104,130 200,189 219,134 531,147 778,33 8,-3 15,-6 22,-11l63 -34c9,-5 10,-8 18,-13 7,-5 13,-8 20,-12 7,-5 11,-9 18,-14 6,-4 12,-9 18,-13 31,-25 70,-59 95,-87 47,-54 91,-107 123,-166 45,-84 71,-135 100,-230 8,-28 15,-55 22,-84 8,-37 22,-114 26,-154 7,-83 8,-167 6,-251 0,-12 -3,-18 -3,-32 0,-14 -2,-22 -3,-33l-12 -98c-5,-22 -7,-41 -12,-63 -20,-81 -44,-159 -78,-232 -26,-55 -53,-102 -90,-153 -12,-17 -23,-31 -37,-48 -26,-33 -53,-59 -84,-88 -90,-84 -220,-158 -377,-190 -152,-31 -331,-26 -468,22 -46,16 -94,36 -131,59 -6,4 -8,5 -14,8 -46,24 -107,78 -138,110l-70 93c0,0 -1,1 -1,1l-2 -502 -624 0 0 1994z"></path>
   <path fill="#332D5F" d="M5793 1891c0,-167 43,-365 218,-473 130,-81 356,-83 485,-3 33,20 48,31 73,54 23,22 38,41 55,66 122,169 125,538 2,705 -39,54 -76,95 -146,131 -9,5 -11,6 -22,11 -83,34 -125,37 -226,37 -80,0 -169,-28 -224,-61 -19,-11 -57,-42 -71,-56 -109,-106 -144,-264 -144,-411zm-620 -4c0,186 29,343 106,512l71 124c60,88 122,154 223,224 34,23 79,51 122,69 103,43 215,77 349,77 120,0 182,-4 287,-37 34,-10 60,-19 90,-33 128,-59 187,-113 256,-197 8,-10 15,-20 22,-31 4,-6 8,-11 11,-16l10 -16c0,131 14,336 -42,454 -26,55 -64,118 -132,160l-41 24 746 0 38 -109c36,-123 48,-241 48,-371l0 -1535c0,-84 -24,-149 -74,-204 -14,-15 -23,-22 -40,-35 -30,-24 -75,-42 -122,-51 -144,-26 -264,21 -326,97 -57,70 -58,135 -58,216l-3 -3c-11,-14 -24,-38 -41,-60 -18,-21 -32,-38 -51,-58 -17,-17 -39,-36 -60,-52 -126,-94 -281,-155 -495,-155 -190,0 -348,58 -443,117 -105,64 -163,116 -230,198l-49 67c-74,111 -136,274 -152,393l-20 231z"></path>
   <path fill="#332D5F" d="M2266 2686c0,97 32,200 159,259 88,41 220,42 307,1 120,-58 158,-153 158,-258l0 -1996 -624 0 0 1994z"></path>
   <path fill="#332D5F" d="M617 26l0 571c0,25 38,18 96,18 31,0 23,-55 23,-77l0 -277c0,1 1,1 1,1 0,1 1,1 1,2l30 50c11,18 20,36 31,54 11,18 50,102 75,102 62,0 63,4 80,-18l94 -161c5,-9 9,-22 18,-28l0 273c0,92 -7,79 99,79 15,0 23,-19 23,-30l0 -542c0,-42 -24,-35 -86,-35 -32,0 -51,47 -62,67l-91 159c-9,13 -14,25 -23,39l-29 41c-1,-10 -35,-65 -43,-79l-114 -197c-20,-36 -29,-30 -100,-30 -11,0 -23,10 -23,18z"></path>
   <path fill="#332D5F" d="M3414 514l-171 0 0 -146 168 0c109,0 111,146 3,146zm-26 -255l-145 0 0 -133 138 0c90,0 99,29 99,74 0,38 -30,59 -92,59zm-264 -219l0 561c0,7 6,23 20,23l293 0c122,0 175,-114 175,-181 0,-49 -9,-70 -40,-108 -10,-12 -19,-18 -29,-27 9,-24 56,-30 56,-128 0,-79 -62,-164 -204,-164l-241 0c-21,0 -30,12 -30,24z"></path>
   <path fill="#332D5F" d="M5156 34l0 569c0,27 27,21 96,21 32,0 23,-59 23,-81l0 -292 9 11c66,103 146,214 215,319 33,51 26,43 112,43 15,0 24,-15 24,-25l0 -559c0,-7 -3,-11 -7,-15 -13,-13 -38,-9 -82,-9 -26,0 -30,14 -30,31l0 346c-4,-3 -1,0 -5,-5 -2,-2 -3,-5 -4,-6 -4,-5 -5,-7 -9,-13l-213 -316c-27,-42 -28,-37 -99,-37 -16,0 -30,8 -30,18z"></path>
   <path fill="#332D5F" d="M6281 186c0,41 11,75 30,103 15,22 39,37 68,50 46,22 116,34 170,47 60,14 98,25 98,67 0,34 -31,57 -78,66 -36,7 -80,7 -114,-2 -38,-10 -54,-29 -66,-51 -18,-30 -19,-25 -105,-25 -55,0 -3,193 231,193 155,0 251,-80 251,-174 0,-78 -27,-134 -143,-170 -37,-11 -97,-23 -140,-33 -53,-14 -83,-30 -83,-69 0,-21 13,-39 30,-50 46,-28 130,-29 174,6 55,46 -1,48 116,48 66,0 11,-96 -36,-132 -91,-69 -252,-71 -343,3 -34,29 -60,74 -60,123z"></path>
   <path fill="#332D5F" d="M4322 180c0,141 75,165 272,207 46,10 94,26 94,62 0,72 -121,86 -193,68 -35,-9 -55,-28 -67,-50 -3,-7 -4,-10 -10,-16 -14,-15 -38,-10 -93,-10 -44,0 -13,100 50,142 161,105 432,42 432,-132 0,-144 -137,-158 -277,-192 -60,-15 -90,-28 -90,-73 0,-71 142,-91 204,-41 12,10 15,15 24,27 18,25 25,20 92,20 62,0 10,-91 -23,-121 -136,-122 -415,-59 -415,109z"></path>
   <path fill="#332D5F" d="M399 437c0,25 -3,41 -34,59 -34,19 -71,18 -114,18 -79,0 -98,-39 -114,-64 -15,-24 -39,-19 -91,-19 -44,0 -28,45 -22,62 9,25 22,42 40,61 14,14 45,34 67,44 116,52 295,29 362,-67 31,-45 36,-121 6,-167 -13,-21 -26,-32 -47,-49 -13,-10 -50,-25 -70,-31 -66,-20 -127,-28 -175,-44 -73,-25 -60,-83 -33,-105 41,-33 141,-38 186,4 49,45 3,45 112,45 81,0 -7,-184 -195,-184l-20 0c-91,0 -160,42 -189,82 -19,26 -29,45 -32,80 0,8 -4,12 -3,22 15,115 43,140 230,185 51,12 136,23 136,68z"></path>
   <path fill="#332D5F" d="M7208 443c0,28 -6,51 -46,67 -51,21 -152,20 -191,-16 -9,-9 -15,-18 -21,-28 -19,-30 -10,-25 -98,-25 -53,0 -12,78 -6,87 13,22 27,35 49,53 85,65 256,74 362,4 35,-23 70,-75 70,-119 0,-52 -4,-103 -67,-142 -51,-31 -87,-39 -159,-54 -55,-12 -132,-25 -137,-68 -3,-25 -1,-42 21,-59 39,-32 133,-38 180,1 14,12 14,14 24,27 20,27 24,21 98,21 47,0 21,-95 -59,-144 -15,-9 -34,-17 -53,-24 -99,-37 -234,-12 -297,65 -54,66 -63,204 80,257 31,12 76,23 111,31 19,4 42,9 60,14 36,9 79,24 79,52z"></path>
   <path fill="#332D5F" d="M5767 43l0 556c0,10 8,25 23,25l386 0c11,0 19,-12 19,-19l0 -71c0,-10 -12,-20 -29,-20l-281 0 0 -142 258 0c15,0 26,-8 26,-18l0 -73c0,-9 -9,-18 -26,-18l-258 0 0 -137 284 0c11,0 20,-12 20,-19l0 -71c0,-10 -12,-20 -30,-20l-363 0c-20,0 -29,14 -29,27z"></path>
   <path fill="#332D5F" d="M1560 148c1,13 70,180 80,210 2,7 8,25 13,31l-188 0c0,-10 7,-21 10,-30 4,-10 8,-22 12,-31l64 -166c3,-8 0,-10 9,-14zm-297 445c0,29 33,22 90,22 32,0 36,-34 43,-52 8,-20 18,-44 26,-65l274 0c0,9 29,83 35,96 12,27 25,21 100,21 18,0 20,-17 20,-26 0,-14 -101,-262 -113,-297l-101 -258c-14,-33 -24,-26 -126,-26 -24,0 -28,14 -32,25 -37,82 -67,176 -102,261 -21,50 -39,99 -58,149 -6,16 -56,137 -56,150z"></path>
   <path fill="#332D5F" d="M3715 36l0 375c0,59 21,114 56,152 35,37 95,71 191,71 184,0 251,-118 251,-233l0 -361c0,-31 -40,-24 -89,-24 -40,0 -30,40 -30,57 0,75 7,326 -7,374 -25,82 -139,96 -207,55 -63,-39 -47,-145 -47,-200l0 -265c-5,-27 -36,-21 -89,-21 -17,0 -29,10 -29,20z"></path>
   <path fill="#FF9D00" d="M271 3733l-152 0 0 -176 148 0c55,0 89,40 89,75 0,28 3,51 -22,75 -12,11 -35,26 -63,26zm-10 -235l-142 0 0 -158 128 0c135,0 105,113 77,136 -15,12 -36,22 -63,22zm-215 -190l0 463c0,8 5,21 17,21l224 0c42,0 83,-24 104,-46 43,-43 52,-126 17,-174 -8,-11 -12,-16 -21,-26 -11,-10 -21,-13 -31,-21 99,-41 89,-241 -79,-241l-214 0c-14,0 -17,15 -17,24z"></path>
   <path fill="#FF9D00" d="M1366 3733l-152 0 0 -176 148 0c32,0 55,14 67,26 46,47 23,150 -63,150zm-10 -235l-142 0 0 -158c66,0 167,-7 200,17 48,34 39,141 -58,141zm-215 -196l0 472c0,8 4,18 17,18l218 0c54,0 90,-26 111,-47 58,-59 48,-184 -35,-218 13,-13 28,-17 45,-45 43,-69 8,-198 -125,-198l-214 0c-13,0 -17,10 -17,18z"></path>
   <path fill="#332D5F" d="M2438 36l0 555c0,10 9,24 23,24l383 0c33,0 23,-60 23,-85 0,-12 -9,-24 -30,-24l-280 0 0 -476c0,-28 -35,-22 -89,-22 -23,0 -30,14 -30,28z"></path>
   <path fill="#332D5F" d="M1930 30l0 563c0,12 8,22 26,22l380 0c31,0 23,-60 23,-79 0,-14 -7,-30 -30,-30l-280 0 0 -474c0,-30 -37,-24 -96,-24 -14,0 -23,13 -23,22z"></path>
   <path fill="#FF9D00" d="M2586 3302l0 472c0,22 16,18 53,18 27,0 17,-67 17,-85l0 -290c0,1 1,1 1,1l15 21c5,8 10,15 15,24l202 309c15,23 10,20 60,20 12,0 17,-13 17,-21l0 -465c0,-27 -12,-22 -53,-22 -22,0 -17,24 -17,38l0 342c0,0 -1,-1 -1,-1l-187 -286c-10,-16 -21,-31 -31,-48 -30,-53 -27,-45 -74,-45 -13,0 -17,10 -17,18z"></path>
   <path fill="#FF9D00" d="M3279 3731l-119 0 0 -387c122,0 195,-11 233,58 25,48 24,218 4,267 -15,36 -48,62 -118,62zm-188 -437l0 488c0,6 3,1 7,10 56,0 112,0 168,0 109,0 169,-27 195,-91 28,-66 19,-162 19,-235 0,-79 -39,-182 -191,-182l-181 0c-8,0 -17,5 -17,10z"></path>
   <path fill="#FF9D00" d="M6763 3527l-126 0 0 -185c138,0 231,-15 231,95 0,44 -25,90 -105,90zm-195 -229l0 480c0,21 69,23 69,0l0 -191 129 0c4,10 9,18 15,27l77 135c5,9 10,18 16,27 13,20 19,18 50,18 50,0 7,-52 -4,-70l-85 -149c34,-5 66,-34 80,-52 9,-13 14,-24 18,-40 19,-64 8,-147 -80,-184 -19,-8 -49,-15 -80,-15l-188 0c-11,0 -17,7 -17,14z"></path>
   <path fill="#FF9D00" d="M1818 3527l-112 0c-8,0 -10,-2 -10,-7l0 -178 122 0c143,0 116,133 83,161 -18,14 -42,24 -83,24zm-192 -225l0 472c0,29 57,19 61,17 3,-2 9,-7 9,-9l0 -195 128 0 110 190c11,19 20,17 55,17 38,0 5,-44 1,-51l-96 -168c14,-2 39,-14 48,-21 82,-60 81,-208 -28,-255 -16,-6 -50,-15 -76,-15l-195 0c-13,0 -17,10 -17,18z"></path>
   <path fill="#FF9D00" d="M5123 3298l0 480c0,18 23,14 53,14 8,0 17,-6 17,-10l0 -215 250 0 0 204c0,26 19,21 56,21 13,0 17,-10 17,-18l0 -472c0,-23 -16,-18 -56,-18 -12,0 -17,12 -17,20l0 198 -250 0 0 -208c0,-14 -34,-10 -53,-10 -11,0 -17,7 -17,14z"></path>
   <path fill="#FF9D00" d="M2283 3358l47 127c9,22 16,44 25,64l24 65 -195 0 94 -249c0,0 1,-2 1,-3 2,-2 2,-2 4,-4zm-231 420c0,18 23,14 53,14 16,0 28,-43 32,-55 7,-20 16,-41 24,-61l241 0 33 91c12,29 10,25 59,25 34,0 3,-54 -5,-76 -8,-22 -18,-42 -25,-64 -19,-56 -51,-132 -73,-190l-49 -128c-4,-10 -7,-20 -12,-31 -9,-25 -18,-21 -67,-21 -21,0 -26,8 -30,19l-158 412c-4,10 -8,19 -12,31 -4,11 -11,22 -11,34z"></path>
   <path fill="#FF9D00" d="M7043 3298l0 480c0,6 6,14 17,14l307 0c21,0 16,-28 16,-41 0,-11 -4,-20 -23,-20l-248 0 0 -166 225 0c31,0 23,-19 23,-47 0,-9 -8,-14 -23,-14l-225 0 0 -160 241 0c31,0 23,-19 23,-46 0,-7 -5,-14 -16,-14l-300 0c-11,0 -17,7 -17,14z"></path>
   <path fill="#FF9D00" d="M4206 3298l0 480c0,6 6,14 17,14l306 0c22,0 17,-28 17,-41 0,-11 -4,-20 -23,-20l-248 0 0 -166 225 0c31,0 23,-19 23,-47 0,-9 -8,-14 -23,-14l-225 0 0 -160 241 0c31,0 23,-19 23,-46 0,-7 -5,-14 -16,-14l-300 0c-11,0 -17,7 -17,14z"></path>
   <path fill="#FF9D00" d="M6060 3286c-8,22 -3,292 -3,338 0,79 45,176 201,176 176,0 191,-142 191,-223l0 -269c0,-30 -14,-24 -56,-24 -25,0 -16,39 -16,54 0,68 7,284 -10,328 -8,21 -15,32 -33,47 -40,34 -163,45 -197,-45 -18,-48 -11,-258 -11,-328 0,-59 10,-56 -49,-56 -6,0 -13,1 -17,2z"></path>
   <path fill="#FF9D00" d="M4619 3537c0,82 1,263 197,263 77,0 117,-17 157,-50 36,-31 51,-73 51,-118 0,-11 -26,-10 -39,-10 -50,0 -20,24 -56,75 -14,19 -39,34 -72,39 -7,1 -33,3 -40,3 -55,-3 -84,-22 -101,-49 -34,-52 -25,-147 -25,-208 0,-54 18,-146 129,-146 82,0 116,37 128,81 11,38 2,37 60,37 31,0 15,-45 10,-59 -20,-62 -76,-120 -198,-120 -156,0 -181,102 -197,167l-4 95z"></path>
   <path fill="#332D5F" d="M4902 40l0 559c0,32 35,25 99,25 11,0 20,-12 20,-19l0 -569c0,-26 -47,-20 -89,-20 -21,0 -30,13 -30,24z"></path>
   <path fill="#FF9D00" d="M475 3298c0,13 83,144 97,169 13,23 80,127 81,142l0 154c0,33 2,29 56,29 25,0 17,-48 17,-65l0 -113c-1,-26 58,-109 77,-143 10,-20 22,-38 34,-57l49 -84c36,-55 2,-46 -38,-46 -15,0 -39,48 -44,58 -6,11 -13,20 -19,30 -6,10 -12,21 -19,32 -5,8 -72,114 -73,125l-147 -234c-9,-14 -13,-11 -54,-11 -11,0 -17,7 -17,14z"></path>
   <path fill="#FF9D00" d="M3741 3302c0,11 -5,44 16,44l142 0 0 436c0,6 3,1 7,10l53 0c5,-5 10,-7 10,-14l0 -432 138 0c30,0 25,-62 3,-62l-353 0c-12,0 -16,10 -16,18z"></path>
   <path fill="#FF9D00" d="M5595 3302c0,11 -5,44 16,44l142 0 0 434c0,15 15,12 53,12 11,0 17,-8 17,-14l0 -432 138 0c29,0 25,-62 3,-62l-353 0c-12,0 -16,10 -16,18z"></path>
   <path fill="#FF9D00" d="M3589 3302l0 472c0,22 16,18 56,18 11,0 17,-10 17,-16l0 -474c0,-23 -16,-18 -56,-18 -13,0 -17,10 -17,18z"></path>
   <path fill="#332D5F" d="M5331 3201l528 0 -211 -75c-68,-22 -165,-59 -240,-16 -34,19 -74,67 -77,91z"></path>
  </g>
 </g>
</svg>